<?xml version="1.0" encoding="utf-8"?>
<!-- Generator: Adobe Illustrator 25.2.0, SVG Export Plug-In . SVG Version: 6.00 Build 0)  -->
<svg version="1.1" id="Layer_1" xmlns="http://www.w3.org/2000/svg" xmlns:xlink="http://www.w3.org/1999/xlink" x="0px" y="0px"
	 viewBox="0 0 2000 2000" style="enable-background:new 0 0 2000 2000;" xml:space="preserve">
<style type="text/css">
	.st0{fill:url(#SVGID_1_);}
	.st1{fill:url(#SVGID_2_);}
	.st2{fill:url(#SVGID_3_);}
	.st3{fill:url(#SVGID_4_);}
	.st4{fill:url(#SVGID_5_);}
	.st5{fill:url(#SVGID_6_);}
</style>
<g>
	<radialGradient id="SVGID_1_" cx="1117.0729" cy="978.5187" r="99.8998" gradientUnits="userSpaceOnUse">
		<stop  offset="6.055075e-08" style="stop-color:#262262"/>
		<stop  offset="0.3125" style="stop-color:#26A3DC"/>
		<stop  offset="0.3533" style="stop-color:#2397D4"/>
		<stop  offset="0.4377" style="stop-color:#1F84C6"/>
		<stop  offset="0.5246" style="stop-color:#1D79BF"/>
		<stop  offset="0.6172" style="stop-color:#1C75BC"/>
		<stop  offset="1" style="stop-color:#262262"/>
	</radialGradient>
	<path class="st0" d="M1079.6,911.5c0,0,3.88-15.98-2.97-25.39c-3.29-4.52-9.88-8.67-10.34-8.95c-0.01-0.01-0.01-0.01-0.02-0.02
		c-1.63-0.92-8.28,13.14-21.46,25.66c-4.22,4.01-5.2,4.15-9.32,8.47c-3.34,3.51-7.42,7.8-10.85,14.25c0,0-1.35,2.54-5.93,14.79
		c1.41,31.43,2.23,43.85,2.23,43.85c0.35,5.25,0.53,7.91,0.85,11.8c3.47,42.2,9.18,52.46,14.58,58.16c3.7,3.91,7.15,5.56,8.99,6.29
		c7.11,2.84,13.79,1.41,16.44,0.66c3.61-1.02,6.18-2.69,8.17-3.91c52.19-32.13,53.99-60.42,53.99-60.42c0,0,1.8-53.4,1.8-53.4
		c0,0,8.29-2.63,15.05-1.24c2.97,0.61,5.14,1.89,9.7,5.36c10.22,7.78,15.33,11.67,18.81,16.67c6.59,9.47,8.76,18.9,8.52,25.92
		c-0.31,9.49,0.91,19.35-2.84,28.38c-2.93,7.04-8.09,13.18-14.65,17.1c-0.67,0.4-1.4,0.79-2.18,0.71c-1.3-0.12-2.14-1.33-2.38-1.65
		c-1.29-1.71-6.19-6.06-16.2-14.15c-6.4,7.43-10.78,13.9-13.59,18.43c-4.13,6.64-9.7,16.85-9.7,16.85l0,0c0,0,4.62,7.8,10.46,14.3
		c3.87,4.31,10.02,11.16,15.07,9.7c1.8-0.52,2.86-1.9,3.32-2.55c7-9.95,18.91-15.32,28.1-23.3c14.58-12.64,21.89-19,23.22-20.62
		c2.26-2.76,10.13-12.72,14.82-26.79c8.98-26.89,2.66-57.11-12.64-78.12c-7.19-9.87-16.35-18.52-27.41-23.69
		c-11.06-5.17-24.12-6.61-35.6-2.49c-9.61,3.45-17.36,10.44-23.83,18.16c-6.74,8.04-13.55,16.88-17.04,26.85
		c-3.58,10.25-3.79,22.2-4.63,32.93c-0.77,9.91-1.54,19.82-2.32,29.72c-0.29,3.67-2.3,7.89-5.39,10.07
		c-3.76,2.65-11.75,2.85-15.59,0.24c-1.25-0.85-2.19-2.1-2.87-3.45c-2.6-5.17-2.28-12.06-2.83-17.73
		c-0.68-7.03-1.36-14.05-2.04-21.08c-1.36-14.05-2.72-28.1-4.08-42.16c-0.07-0.7-0.14-1.41-0.2-2.11c-0.25-2.57,1.11-4.14,2.99-5.81
		c5.28-4.69,8.42-6.42,15.38-11.53C1075.49,914.61,1079.6,911.5,1079.6,911.5z"/>
	<radialGradient id="SVGID_2_" cx="681.0452" cy="1211.6555" r="101.7396" gradientUnits="userSpaceOnUse">
		<stop  offset="6.055075e-08" style="stop-color:#262262"/>
		<stop  offset="0.3125" style="stop-color:#26A3DC"/>
		<stop  offset="0.3533" style="stop-color:#2397D4"/>
		<stop  offset="0.4377" style="stop-color:#1F84C6"/>
		<stop  offset="0.5246" style="stop-color:#1D79BF"/>
		<stop  offset="0.6172" style="stop-color:#1C75BC"/>
		<stop  offset="1" style="stop-color:#262262"/>
	</radialGradient>
	<path class="st1" d="M575.91,1309.88c4.69-3.68,8.53-9.94,12.36-14.55c4.27-5.15,8.51-10.32,12.69-15.55
		c8.34-10.44,16.44-21.1,23.98-32.14c1.03-1.5,5.47-10.89,5.47-10.88c0,0-4.88-71.63-4.88-71.64c0,0,8.36-6.82,15.62-8.79
		c13.34-3.61,27.08,8.03,29.36,9.96c6.58,5.57,9.79,11.75,10.98,14.3c3.33,7.12,3.73,13.3,4,18.02c0.23,4.13,0.62,11.12-1.95,18.75
		c-4.21,12.51-11.6,12.56-19.66,28.34c-2.07,4.06-4.49,8.8-5.7,15.59c-1.79,10.09-0.41,21.94-0.41,21.94c0,0,21.58,0.37,42.11-0.26
		c25.15-0.76,49.48-3.03,49.48-3.03c0,0,8.3-3.56,13.84-8.46c1.81-1.6,2.38-2.51,7.91-10.98c7.81-11.94,15.06-22.98,15.06-22.98
		c0,0-0.49-16.97-0.77-32.94c-0.28-16.67-2.91-33.24-3.24-49.91c-0.01-0.56-0.07-2.06-0.8-3.78c-0.87-2.04-3.8-3.88-5.44-5.24
		c-3.11-2.6-6.23-5.14-9.17-7.94c-2.67,9.54-6.37,16.3-9.18,20.66c-6.15,9.49-14.27,17.02-12,20.94c1.06,1.83,5.11,4.09,5.11,4.09
		c0,0,1.79,53.4,1.79,53.4c0,0-20.54,0.52-59.49,1.5c0,0,17.36-21.19,20.68-31.4s9.19-30.89,2.55-46.21
		c-3.97-9.16-8.47-17.76-15.68-25.55c-3.5-3.78-9.43-9.95-18.9-14.53c-1.38-0.67-30.07-14.16-44.11-2.31
		c-4.98,4.21-34.27,34.85-44.28,54.31c-0.69,1.34-1.26,2.44-1.63,3.15c0,0,5.62,76.08,5.62,76.09c0,0-2.67,6.1-6.89,10.47
		c-4.35,4.51-8.76,5.53-11.74,9.35c-0.2,0.26-2.49,3.21-2.49,3.21c0.19,14.64,0.19,17.83,0.19,17.83
		C576.3,1296.69,576.23,1302.6,575.91,1309.88z"/>
	<radialGradient id="SVGID_3_" cx="951.3101" cy="1180.0433" r="130.917" gradientUnits="userSpaceOnUse">
		<stop  offset="6.055075e-08" style="stop-color:#262262"/>
		<stop  offset="0.3125" style="stop-color:#26A3DC"/>
		<stop  offset="0.3533" style="stop-color:#2397D4"/>
		<stop  offset="0.4377" style="stop-color:#1F84C6"/>
		<stop  offset="0.5246" style="stop-color:#1D79BF"/>
		<stop  offset="0.6172" style="stop-color:#1C75BC"/>
		<stop  offset="1" style="stop-color:#262262"/>
	</radialGradient>
	<path class="st2" d="M816.18,1282.52c-0.73-1.09,25.75-26.39,28.19-28.89c0.59-0.61,1.2-1.25,1.42-2.07
		c0.16-0.6,0.09-1.23,0.01-1.85c0-6.43-1.57-13.25-2.33-19.65c-0.8-6.76-1.6-13.52-2.4-20.28c-1.49-12.6-2.98-25.21-4.47-37.82
		c-0.04-0.4,7.78-0.18,8.55-0.11c1.86,0.18,3.62,0.66,5.25,1.41c0,0,2.7,1.24,4.98,3.56c5.7,5.82,11.31,23.35,10.84,23.49
		c-0.38,0.11-4.08-11.47-4.12-11.45c-0.04,0.01,4.12,11.45,4.12,11.45h0c3.03,0,5.69,37.15,6.15,54.69
		c0.13,4.75,0.48,18.99,0.36,14.24c6.23-7.14,11.88-12.12,15.9-15.34c5.91-4.75,15.13-11.21,15.13-11.21c0,0-2.3-17.64-3.15-31.78
		c-0.43-7.03-0.74-17.23-0.02-29.8c0,0,4.77-5.14,6.89-7.21c2.82-2.73,9.18-7.9,17.98-9.98c8.87-2.1,18.76-0.51,18.77-0.51
		c0,0-2.21,3.7-2.27,3.81c-0.77,1.3-4.22,7.99-7.44,16.46c-2.15,5.66-3.07,11.7-3.97,17.69c-1.28,8.52-2.57,17.12-1.92,25.71
		c1.95,25.67,27.48,51.34,54.12,61.29c7.97,2.98,17.65,6.46,29.52,4.22c12.95-2.45,21.25-10.34,33.96-22.72
		c2.63-2.56,12.97-12.81,26-32.12c13.73-20.35,19.62-30.76,23.3-43.46c4.89-16.88,1.17-36.02-5.25-51.97
		c-1.77-4.39-3.81-8.67-6.11-12.8c-7.44-13.32-17.62-25.25-30.36-33.65c-12.41-8.18-26.97-12.81-41.73-14.53
		c-28.21-3.27-55.93,5.11-83.91,7.41c-3.34,0.27-6.74,0.5-10.01-0.25c-6.35-1.44-11.1-6.2-15.28-10.88
		c-1.21-1.36-10.16-9.33-9.58-10.87c-1.99,5.25-3.81,10.57-5.48,15.92c-1.26,4.02-2.46,8.09-3.31,12.22
		c-1.03,4.97-0.57,7.87,1.23,12.7c0.99,2.66,2.04,5.4,4.04,7.42c3.16,3.18,7.99,3.87,12.46,4.2c15.85,1.17,45.32-2.11,53.84-2.58
		c7.31-0.4,27.32-0.95,50.33,6.17c15.14,4.68,22.79,9.97,25.3,11.78c3.08,2.22,13.51,10.13,21.62,24.5
		c1.42,2.51,6.22,11.18,8.75,23.72c3.15,15.61,2.17,32.15-3.57,47.01c-1.58,4.08-3.55,8.07-6.24,11.53
		c-3.18,4.08-5.93,5.99-10.93,6.81c-10.62,1.75-21.79,4.03-32.38,0.9c-15.25-4.5-32.35-9.97-40.92-24.67
		c-3.13-5.38-4.64-11.53-5.9-17.62c-1.41-6.8-2.56-13.75-2.04-20.68c0.45-6.01,2.16-11.84,3.92-17.6
		c1.78-5.84,3.68-11.75,7.07-16.83c0.57-0.86,3.9-6.5,3.91-6.5c3.23,6.04-5.44-13.15-10.72-17.52c-7.05-5.84-16.85-4.78-24.14-3.99
		c-3.95,0.43-15.04,2.27-25.32,10.27c-4.93,3.84-8.9,8.73-12.4,13.87c-0.73,1.07-10.29,14.85-10.45,14.6
		c-3.9-5.91-5.7-13.11-9.92-19.03c-2.84-3.98-7.6-11.12-16.63-13.93c-9.5-2.95-17.77,0.66-19.35,1.38
		c-11.04,6.1-24.89,21.03-29.87,29.36c-5.22,8.73-7.04,12.57-8.33,15.53c-1.17,2.7-1.79,4.05-2.23,5.81
		c-1.07,4.3-0.81,8.4-0.44,13.54c0.58,8.01,1.17,16.02,1.75,24.03c1.17,16.02,2.33,32.04,3.5,48.06
		C810.9,1273.52,812.75,1277.36,816.18,1282.52z"/>
	<radialGradient id="SVGID_4_" cx="1261.6843" cy="1181.4016" r="135.6522" gradientUnits="userSpaceOnUse">
		<stop  offset="6.055075e-08" style="stop-color:#262262"/>
		<stop  offset="0.3125" style="stop-color:#26A3DC"/>
		<stop  offset="0.3533" style="stop-color:#2397D4"/>
		<stop  offset="0.4377" style="stop-color:#1F84C6"/>
		<stop  offset="0.5246" style="stop-color:#1D79BF"/>
		<stop  offset="0.6172" style="stop-color:#1C75BC"/>
		<stop  offset="1" style="stop-color:#262262"/>
	</radialGradient>
	<path class="st3" d="M1147.2,1220.16c4.6-4,9.19-8,13.79-12c4,4.51,8,9.02,12,13.53c-19.4,22.04-38.81,44.09-58.21,66.13
		c-2.82-4.03-5.64-8.07-8.46-12.1c-0.81-1.16-4.26-4.64-4.25-6.08c0.02-3.04,9.83-9.47,12.24-11.61c3.43-3.04,0.4-12.44-0.06-16.28
		c-0.94-7.84-1.88-15.69-2.83-23.53c-1.88-15.69-3.77-31.38-5.65-47.07c-0.21-1.77-0.57-3.97-0.27-6.92
		c0.71-7.03,17.16-34.76,45.68-51.56c4.64-2.73,10.58-2.11,15.94-1.61c5.06,0.46,10.18,1.58,14.5,4.27
		c4.31,2.69,7.43,6.73,10.22,10.89c2.3,3.44,4.85,10.04,8.37,12.01c7.54-10.12,11.92-21.77,21.53-30.32
		c9.29-8.26,21.23-13.55,33.62-14.7c13.61-1.26,27.63,2.47,38.85,10.26c17.12,11.88,30.82,24.15,39.94,43.23
		c3.17,6.62,5.89,13.53,7,20.79c0.86,5.64,0.72,11.38,0.51,17.09c-0.37,9.85-1.03,19.96-5.16,28.91
		c-2.93,6.33-9.93,18.31-14.8,23.23c-3.7,3.74-16.63,20.12-39.35,34.5c-5.06,3.21-11.64,3.97-17.42,2.37
		c-7.59-2.1-13.05-8.79-16.65-15.79c-6.45-12.55-6.8-26.26-6.87-40.04c-0.08-15.45-0.15-30.89-0.23-46.34
		c-0.01-1.38-0.01-2.78,0.32-4.11c0.46-1.84,1.53-3.46,2.58-5.03c4.33-6.49,8.65-12.98,13-19.46c7.7-11.49,15.68-22.79,27.03-30.97
		c5.77-4.16,11.15-8.98,16.8-13.39c7.82-6.1,16-12.4,24.6-17.44c12.55-7.35,28.48-7.65,42.18-2.74
		c21.35,7.65,36.18,24.77,44.29,45.38c11.15,28.35,11.89,59.99,4.45,89.42c-2,7.91-4.63,15.71-8.5,22.89
		c-6.93,12.87-17.55,23.3-28,33.52c-3.52,3.44-7.22,6.99-11.9,8.48c-7.84,2.5-13.93-3.8-18.3-9.44
		c-5.51-7.12-10.86-14.41-15.02-22.42c-0.39-0.74-0.77-1.52-0.83-2.36c-0.08-1.08,0.38-2.11,0.85-3.09
		c6.26-13.11,14.5-25.41,22.37-37.6c0,0,12.76,20.93,15.32,23.49c2.28,2.28,7.49-3.62,8.67-5.31c2.54-3.66,3-8.54,3.23-12.86
		c0.39-7.32,0.5-14.65,0.34-21.97c-0.3-13.43-1.62-27.14-7.16-39.38c-4.88-10.79-13.04-20.13-23.28-26.08
		c-7.55-4.38-16.21-6.88-24.94-7.11c-8.17-0.21-18.79-1.2-26.56,1.65c-7.66,2.81-26.3,22.47-26.04,29.62
		c0.26,7.15,1.02,72.51,1.02,72.51s3.57,13.02,9.45,15.57c5.87,2.55,4.6,2.04,4.6,2.04s8.68-9.45,11.23-12.26
		c2.55-2.81,9.7-33.7-3.83-52.85c-13.53-19.15-20.94-30.64-43.4-34.72c-22.47-4.09-33.7-1.02-38.81,9.19
		c-5.11,10.21-7.91,15.32-7.91,15.32l2.55,70.72l-24,24.51c0,0-5.87-7.15-5.87-8.17c0-7.42-0.91-14.95-1.38-22.35
		c-0.76-12-0.91-24.14-2.02-36.1c-0.96-10.36-3.66-20.98-10.43-28.87c-6.77-7.89-18.4-12.27-27.98-8.22
		C1142.29,1174.34,1144.74,1197.25,1147.2,1220.16z"/>
	<radialGradient id="SVGID_5_" cx="1470.4375" cy="1214.7063" r="42.2906" gradientUnits="userSpaceOnUse">
		<stop  offset="6.055075e-08" style="stop-color:#262262"/>
		<stop  offset="0.3125" style="stop-color:#26A3DC"/>
		<stop  offset="0.3533" style="stop-color:#2397D4"/>
		<stop  offset="0.4377" style="stop-color:#1F84C6"/>
		<stop  offset="0.5246" style="stop-color:#1D79BF"/>
		<stop  offset="0.6172" style="stop-color:#1C75BC"/>
		<stop  offset="1" style="stop-color:#262262"/>
	</radialGradient>
	<path class="st4" d="M1473.58,1233.78c0,0,2.04-0.89,3.16,0.06c1.21,1.03,0.55,3.58,0.25,4.71c-1.67,6.31-9.65,15.11-22.09,20.1
		c-7,2.81-9.93,2.22-10.89,1.98c-5.64-1.4-10.18-7.23-10.16-7.25c0.01-0.01,0.29,0.24,0.58,0.49c0,0-0.71-17.57-2.04-50.38
		c1.93-3.33,5.05-8.13,9.7-13.19c3.81-4.15,14.3-15.27,31.28-19.79c6.09-1.62,12.75-3.29,19.79-0.26c5.25,2.27,8.25,6.09,9.45,7.66
		c5.65,7.39,5.82,15.7,5.87,22.72c0.05,8.04,0.15,22.68-9.83,33.7c-1.53,1.69-3.85,3.9-16.85,10.98
		c-11.04,6.01-20.4,10.43-26.9,13.34c9.75-18.96,16.91-24.04,21.84-24.82c1.44-0.23,7.22-0.79,9.64-4.81
		c0.82-1.36,0.99-2.65,1.09-3.62c0.86-7.9-0.07-15.62-0.45-19.16c-1.19-11.31-0.08-12.52-2.04-14.43
		c-3.82-3.72-12.28-3.26-15.94,0.92c-2.37,2.71-2.28,6.35-1.93,10.05c1.02,10.89,2.04,28.94,2.04,28.94
		S1466.77,1237.19,1473.58,1233.78z"/>
	<radialGradient id="SVGID_6_" cx="749.0593" cy="909.9303" r="239.4238" gradientUnits="userSpaceOnUse">
		<stop  offset="6.055075e-08" style="stop-color:#262262"/>
		<stop  offset="0.3125" style="stop-color:#26A3DC"/>
		<stop  offset="0.3533" style="stop-color:#2397D4"/>
		<stop  offset="0.4377" style="stop-color:#1F84C6"/>
		<stop  offset="0.5246" style="stop-color:#1D79BF"/>
		<stop  offset="0.6172" style="stop-color:#1C75BC"/>
		<stop  offset="1" style="stop-color:#262262"/>
	</radialGradient>
	<path class="st5" d="M1004.22,955.14c-2.08-10.48-7.15-36.02-29.94-54.4c-3.83-3.09-11.7-10.12-22.57-14.43
		c3.75-8.06,7.44-16.05,10.6-23.96c14.17-35.51,19.56-71.54-0.51-106.1c-12.51-21.54-32.14-42.08-54.17-54.01
		c-71.69-38.84-156.25,22.29-182.85,88.66c-7.45,18.59-10.31,39.02-8.11,58.93c2.65,23.92,12.36,46.63,25.06,67.07
		c14.91,24,34.32,44.44,51.34,66.84c12.94,17.02,13.45,22.13,19.24,34.04c5.23,10.76,3.48,24.35-0.9,34.93
		c-3.93,9.5-8.45,19.38-16.84,25.32c-4.69,3.33-10.27,5.17-15.87,6.52c-39.32,9.51-89.31-10.27-93.39-55.27
		c-2.03-22.41,8.46-45.1,25.54-59.75c2.76-2.37,5.75-4.62,7.62-7.75c3.31-5.53,2.43-12.54,0.99-18.82
		c-4.55-19.91-14.59-39.73-32.12-50.22c-13.17-7.87-31.46-8.91-44.8-0.83c-4.01,2.43-28.43,28.06-29.9,27.15
		c-1.36-0.85-1.19-3.06-9.02-13.45c-7.83-10.38-16.68-16.51-26.72-21.45c-31.9-15.68-61.04,17.19-67.17,45.23
		c-4.81,21.98-4.69,33.15-3.02,65.45c0,0,4.9,50.77,1.47,53.82c-2.41,2.14-16.64,13.54-16.66,16.58c-0.01,1.44,3.44,4.92,4.25,6.08
		c2.82,4.03,5.64,8.07,8.46,12.1c19.4-22.04,38.81-44.09,58.21-66.13c-4-4.51-8-9.02-12-13.53c-4.6,4-9.19,8-13.79,12
		c-0.75-6.97-3.44-47.21-4.42-66.27c-0.78-15.06,1.58-30.66,20.2-27.93c10.93,1.6,23.94,9.79,29.13,19.73
		c3.29,6.31,4.01,13.6,4.68,20.68c2.48,26.5,5.65,39.52,4.66,49.88c-0.25,2.61-0.86,7.88,1.5,9.16c1.59,0.86,3.61-0.57,10.48-5.22
		c7.2-4.86,11.68-7.7,17.25-13.02c2.09-2,4.15-4.23,4.87-7.02c0.58-2.25,0.23-4.63-0.13-6.93c-1.57-10.06-3.15-20.12-4.7-30.19
		c-1.08-6.96-0.96-14.58,2.98-20.42c2.48-3.68,6.28-6.31,10.35-8.08c11.2-4.87,24.95-3.26,34.73,4.06
		c8.4,6.29,14.95,18.09,13.93,28.85c-1.05,11.04-10.31,20.05-16.28,28.81c-13.69,20.09-18.44,46.05-12.73,69.68
		c8.89,36.83,46.56,71.36,85.96,67.97c20.07-1.73,38.81-11.51,54.12-24.59c24.22-20.7,49.89-52.64,54.33-85.09
		c2.71-19.77-5.63-38.19-16.14-54.46c-13.59-21.06-30.26-39.93-45.17-60.08c-14.91-20.15-28.28-42.08-33.93-66.5
		c-7.51-32.47,6.18-68,26.77-89.82c12.1-12.82,26.79-20.42,29.05-21.57c8.68-4.41,16.76-8.51,27.38-9.04
		c15.14-0.75,26.68,5.76,40.24,15.12c15.04,10.38,28.13,23.45,39.78,37.47c12.13,14.6,21.26,32.38,23.83,51.33
		c2.49,18.39-3.09,33.46-9.61,52.69c-1.08,3.17-2.07,5.85-3.03,8.25c-0.68,0.1-1.36,0.21-2.04,0.34
		c-70.32,13.46-72.63,65.46-72.63,65.46c0,0,3.62,31.71,5.62,58.47c0.91,12.18,1.92,29.09,2.3,49.53
		c20.54-21.26,33.73-34.91,33.73-34.92c0,0-1.18-14.8-2.33-25.85c-2.39-23.12-4.29-26.91-4.13-40.89
		c0.16-14.05,2.29-18.2,4.32-21.18c4.23-6.21,11.76-9.68,19.26-10.17c0.24-0.02,0.47-0.02,0.71-0.03
		c-2.91,10.17-5.01,19.09-5.86,22.74c-2.88,12.28-4.31,18.43-5.01,24.3c-1.68,14.09-5.27,32.28,5.27,48.47
		c12.72,19.54,51.91,31.72,59.44,27.76c30.38-15.97,36.54-37.97,37.78-45.66c0.37-2.28,0.83-4.54,1.35-6.79
		C1008.51,977.58,1005.85,963.34,1004.22,955.14z M972.29,1002.36c-0.61,4.72-2.55,10.26-7.2,11.23c-2.12,0.44-4.3-0.23-6.3-1.05
		c-20.4-8.39-30.75-32.4-29.96-54.44c0.35-9.64,2.24-19.11,5.06-28.43C959.88,942.92,976.06,973.38,972.29,1002.36z"/>
</g>
</svg>
